<svg width="24" height="24" viewBox="0 0 24 24" fill="none" xmlns="http://www.w3.org/2000/svg">
<path d="M18.8109 2.59453H21.4055V5.18913H18.8109V2.59453Z" fill="#AB4E85"/>
<path d="M16.2161 5.18923L18.8109 5.18913L18.8107 7.78383H16.2161V5.18923Z" fill="#AB4E85"/>
<path d="M13.6215 7.78376L16.2161 7.78383L16.2161 10.3784H13.6215V7.78376Z" fill="#AB4E85"/>
<path d="M11.027 10.3783L13.6215 10.3784L13.6216 12.9729H11.027V10.3783Z" fill="#AB4E85"/>
<path d="M8.43248 12.9728L11.027 12.9729L11.0271 15.5674H8.43248V12.9728Z" fill="#AB4E85"/>
<path d="M5.8377 15.5675L8.43248 15.5674L8.43229 18.1621H5.8377V15.5675Z" fill="#AB4E85"/>
<path d="M3.24342 18.1622H5.83801V20.7568H3.24342V18.1622Z" fill="#AB4E85"/>
<path d="M0.648633 20.757L3.24342 20.7568L3.24323 23.3516H0.648633V20.757Z" fill="#AB4E85"/>
<path d="M18.8109 2.59453H21.4055V5.18913V24H24V0H22.65H0V2.59453H18.8109Z" fill="#AB4E85"/>
</svg>
